# xmcd
#
# Track frame offsets: 
#        150
#        12058
#        23553
#        47157
#        57896
#        71009
#        93215
#        109414
#        121063
#        133404
#        142279
#        154679
#        168433
#        180549
#        193838
#
# Disc length: 2796 seconds
#
# Revision: 0
# Processed by: cddbd v1.5.1PL2 Copyright (c) Steve Scherf et al.
# Submitted via: ExactAudioCopy v0.95b3
#
DISCID=d10aea0f
DTITLE=The Platters - The Originals
DYEAR=2003
DGENRE=R&B
TTITLE0=The great pretender
TTITLE1=Only You
TTITLE2=My way
TTITLE3=Smokie get in your eyes
TTITLE4=My prayer
TTITLE5=Unchained Melody
TTITLE6=Delilah
TTITLE7=Catch the wind
TTITLE8=I Love you a thousand times
TTITLE9=Sentimental journey
TTITLE10=Twilight time
TTITLE11=Golden earing
TTITLE12=With this ring
TTITLE13=I m sorry
TTITLE14=I love you because
EXTD=
EXTT0=
EXTT1=
EXTT2=
EXTT3=
EXTT4=
EXTT5=
EXTT6=
EXTT7=
EXTT8=
EXTT9=
EXTT10=
EXTT11=
EXTT12=
EXTT13=
EXTT14=
PLAYORDER=
